/* XPM */
static char *Ticon[] = {
/* columns rows colors chars-per-pixel */
"48 45 251 2",
"   c #000000",
".  c #0B0202",
"X  c #130304",
"o  c #1A0203",
"O  c #1B0708",
"+  c #1D090A",
"@  c #240002",
"#  c #250608",
"$  c #260A0C",
"%  c #2D0204",
"&  c #2E0608",
"*  c #2C090B",
"=  c #221011",
"-  c #2D1012",
";  c #320103",
":  c #310608",
">  c #340B0D",
",  c #3C0306",
"<  c #3F070A",
"1  c #3D090C",
"2  c #3A0E10",
"3  c #311517",
"4  c #331618",
"5  c #3F1214",
"6  c #450306",
"7  c #450A0D",
"8  c #4D0104",
"9  c #4D0D11",
"0  c #421013",
"q  c #4D1114",
"w  c #530003",
"e  c #55060A",
"r  c #530B0E",
"t  c #580003",
"y  c #5E0A0D",
"u  c #540D10",
"i  c #531215",
"p  c #53171A",
"a  c #55191B",
"s  c #581216",
"d  c #5B1A1D",
"f  c #562326",
"g  c #640004",
"h  c #600308",
"j  c #670A0E",
"k  c #6D0004",
"l  c #6A070C",
"z  c #620E13",
"x  c #631014",
"c  c #651519",
"v  c #60181A",
"b  c #6A1316",
"n  c #6E181D",
"m  c #740005",
"M  c #760309",
"N  c #730B0F",
"B  c #7B0004",
"V  c #780308",
"C  c #700E12",
"Z  c #790F13",
"A  c #731419",
"S  c #791216",
"D  c #791419",
"F  c #621F22",
"G  c #691E23",
"H  c #711F25",
"J  c #7C1C20",
"K  c #652528",
"L  c #712327",
"P  c #782126",
"I  c #7F292D",
"U  c #792D32",
"Y  c #830005",
"T  c #85060B",
"R  c #82080C",
"E  c #8C0005",
"W  c #8E060A",
"Q  c #8D080D",
"!  c #860F12",
"~  c #880C10",
"^  c #81151B",
"/  c #8D1115",
"(  c #8B161C",
")  c #8B191F",
"_  c #920005",
"`  c #9B0005",
"'  c #9D0009",
"]  c #9D080D",
"[  c #940B10",
"{  c #97191E",
"}  c #821C22",
"|  c #8C1B21",
" . c #941D21",
".. c #9F1C23",
"X. c #842126",
"o. c #84252A",
"O. c #822A2D",
"+. c #8F2228",
"@. c #88292C",
"#. c #8C3035",
"$. c #912025",
"%. c #94232B",
"&. c #9B242A",
"*. c #98282C",
"=. c #943033",
"-. c #A30005",
";. c #A2030A",
":. c #A0080D",
">. c #AC0006",
",. c #A90109",
"<. c #AC0E14",
"1. c #A41116",
"2. c #AA131B",
"3. c #B30006",
"4. c #B5030B",
"5. c #B6080D",
"6. c #B80006",
"7. c #BA0209",
"8. c #BE0A0F",
"9. c #B40C12",
"0. c #BC0C14",
"q. c #B2131C",
"w. c #B4191F",
"e. c #BB1219",
"r. c #AC1720",
"t. c #BA1F28",
"y. c #A2272B",
"u. c #A42C30",
"i. c #AC2C34",
"p. c #AC363B",
"a. c #B32027",
"s. c #B32229",
"d. c #BD232A",
"f. c #BD292E",
"g. c #BA343B",
"h. c #BE383D",
"j. c #BC3B43",
"k. c #BD4045",
"l. c #BE4349",
"z. c #C40006",
"x. c #C4030A",
"c. c #CC0007",
"v. c #CD020B",
"b. c #CA080E",
"n. c #C20B12",
"m. c #CB0E15",
"M. c #C5151C",
"N. c #CD141A",
"B. c #D40007",
"V. c #D4030C",
"C. c #D0080F",
"Z. c #DC0007",
"A. c #DA030C",
"S. c #D70510",
"D. c #D80910",
"F. c #DB0F19",
"G. c #D5171E",
"H. c #DE141C",
"J. c #C61A22",
"K. c #CA1C22",
"L. c #D31C24",
"P. c #DD1720",
"I. c #C62129",
"U. c #CC222A",
"Y. c #C32C32",
"T. c #C4363C",
"R. c #CA353C",
"E. c #CE393E",
"W. c #D1252E",
"Q. c #DA222A",
"!. c #D32D35",
"~. c #DC2931",
"^. c #D43239",
"/. c #E50007",
"(. c #E4020A",
"). c #EC0007",
"_. c #EA030B",
"`. c #EA080F",
"'. c #E20510",
"]. c #E20A12",
"[. c #EC0711",
"{. c #ED0B13",
"}. c #E31017",
"|. c #E5131C",
" X c #EC161D",
".X c #EE181F",
"XX c #F40007",
"oX c #F4020A",
"OX c #FC0007",
"+X c #FE0009",
"@X c #F20712",
"#X c #F30A12",
"$X c #F50E19",
"%X c #FD0C14",
"&X c #F4131A",
"*X c #FD131B",
"=X c #E31C24",
"-X c #EC1D24",
";X c #F31923",
":X c #FC1620",
">X c #FD1B23",
",X c #E3232B",
"<X c #EB2026",
"1X c #EB232B",
"2X c #E02C33",
"3X c #EA2C34",
"4X c #E7383F",
"5X c #EA3037",
"6X c #EC343B",
"7X c #F5262E",
"8X c #FF2027",
"9X c #FD242B",
"0X c #FE282F",
"qX c #F12730",
"wX c #F42B32",
"eX c #FE2C33",
"rX c #F63137",
"tX c #F5343C",
"yX c #F7393F",
"uX c #FE3037",
"iX c #FD333A",
"pX c #FE383E",
"aX c #C63F46",
"sX c #D03A40",
"dX c #EC3D45",
"fX c #F33D43",
"gX c #FE3D43",
"hX c #C2464A",
"jX c #CF4247",
"kX c #D64349",
"lX c #EE4449",
"zX c #EE484D",
"xX c #E25155",
"cX c #EF5056",
"vX c #F6454B",
"bX c #FD4147",
"nX c #FE444A",
"mX c #FE4A4F",
"MX c #FD4C52",
"NX c #F4595E",
"BX c #FD5056",
"VX c #FD555A",
"CX c #FE595E",
"ZX c #ED5C60",
"AX c #F35B61",
"SX c #FE5D62",
"DX c #F46065",
"FX c #FD6166",
"GX c #FE6469",
"HX c #FD696E",
"JX c None",
/* pixels */
"JXJXJXJXJXJXJXJXJXJXJXJXJXJXJXJXJXJXJXJXJXJXJXJXJXJXJXJXJXJXJXJXJXJXJXJXJXJXJXJXJXJXJXJXJXJXJXJX",
"JXJXJXJXJXJXJXJXJXJXJXJXJXJXJXJXJXJXJXJXJXJXJXJXJXJXJXJXJXJXJXJXJXJXJXJXJXJXJXJXJXJXJXJXJXJXJXJX",
"JXJXJXJXJXJXJXJXJXJXJXJXJXJXJXJXJXJXJXJXJXJXJXJXJXJXJXJXJXJXJXJXJXJXJXJXJXJXJXJXJXJXJXJXJXJXJXJX",
"JXJXGXSXCXMXgXfXtXrXqXJXJXJXJXJXJXJXJXJXJXJXJXJXJXJXJXJXJXJXJXJXJXJXJXJXJXJXJXJXJXJXJXJXJXJXJXJX",
"JXJXFXSXVXMXnXgXiXuX9XJXJXJXJXJXJXJXJXJXJXJXJXJXJXJXJXJXJXJXJXJXJXJXJXJXJXJXJXJXJXJXJXJXJXJXJXJX",
"JXJXVXVXMXnXgXgXiX0X9X*X*X%X+X+X+XJXJXJXJXJXJXJXJXJXJXJXJXJXJXJXJXJXJXJXJXJXJXJXJXJXJXJXJXJXJXJX",
"JXJXMXMXnXgXiXeX0X8X>X%X%X+X+X+X+X+X+XOXoX+X#XJXJXJXJXJXJXJXJXJXJXJXJXJXJXJXJXJXJXJXJXJXJXJXJXJX",
"JXJXmXnXgXiXeX0X9X*X*X%X%X+X+X+X+X+X+X+XOXOXOXJXJXJXJXJXJXJXJXJXJXJXJXJXJXJXJXJXJXJXJXJXJXJXJXJX",
"JXJXgXgXiXeX9X8X*X%X%X+X+X+X+X+X+X+X+X+X+XOX+XOX+X+XOXOX+X+XoXJXJXJXJXJXJXJXJXJXJXJXJXJXJXJXJXJX",
"JXJXiXuX0X9X>X*X*X%X+X+X+XOX+X+X+XOX+X+X+X+X+XOX+X+X+X+XOXOXOXOXOX+XOXOX+XJXJXJXJXJXJXJXJXJXJXJX",
"JXJXeXeX9X8X*X%X%X+X+X+X+X+XOXOX+X+X+X+X+X+X+X+X+X+X+X+XOX+XOXOX+X+X+X+X+XOX+X+XOXoX#XJXJXJXJXJX",
"JXJX7X>X*X%X%X%X+X+X+X+X+X+XOXOXOX+X+XOX+X+X+X+X+X+XOX+X+X+X+X+X+X+X+X+X+X+X+XOXOX+X).JXJXJXJXJX",
"JXJXJXJX&X#XoX+X+XOXOXOX+X+XOXOX+X+X+X+X+XOX+X+X+X+XOX+X+X+X+XOX+X+X+X+X+X+X+X+X+XXXA.JXJXJXJXJX",
"JXJXJXJXn.V.A.(.(.XXXXOXOX+XOX+X+X+X+XOX+XOX+X+X+X+X+X+X+X+X+X+XOXOX+XOX+X+X+XOXOX_.4.JXJXJXJXJX",
"JXJXJXJXJXJXJXJXJXJXZ.XXOX+X+X+X+XOXOXOXOXXX).`._.(._._._./._._._._._._._.(./.)./.JXJXJXJXJXJXJX",
"JXJXJXJXJXJXJXJXJXJXJXoX+XOX+X+X+X+X+X+X_.b.JXJXJXJXJXJXJXJXJXJXJXJXJXJXJXJXJXJXJXJXJXJXJXJXJXJX",
"JXJXJXJXJXJXJXJXJXJXJXoX+XOX+X+X+XOXOX_.JXJXJXJXJXJXJXJXJXJXJXJXJXJXJXJXJXJXJXJXJXJXJXJXJXJXJXJX",
"JXJXJXJXJXJXJXJXJXJXJX#X+XOX+X+X+X+X+XC.JXJXJXJXJXJXJXJXJXJXJXJXJXJXJXJXJXJXJXJXJXJXJXJXJXJXJXJX",
"JXJXJXJXJXJXJXJXJXJXJXJXJX+XOX+X+X+XOXJXJXJXJXJXJXJXJXJXJXJXJXJXJXJXJXJXJXJXJXJXJXJXJXJXJXJXJXJX",
"JXJXJXJXJXJXJXJXJXJXJX+X+X+X+X+XOX+X_.JXJXJXJXJXJXJXJXJXJXJXJXJXJXJXJXJXJXJXJXJXJXJXJXJXJXJXJXJX",
"JXJXJXJXJXJXJXJXJXJXJXOXOX+X+X+X+XOX(.JXJXJXJXJXJXJXJXJXJXJXJXJXJXJXJXJXJXJXJXJXJXJXJXJXJXJXJXJX",
"JXJXJXJXJXJXJXJXJXJXJXOX+X+X+X+X+XXXA.JXJXJXJXJXJXJXJXJXJXJXJXJXJXJXJXJXJXJXJXJXJXJXJXJXJXJXJXJX",
"JXJXJXJXJXJXJXJXJXJXJX+XOX+X+X+XOX).x.JXJXJXJXJXJXJXJXJXJXJXJXJXJXJXJXJXJXJXJXJXJXJXJXJXJXJXJXJX",
"JXJXJXJXJXJXJXJXJXJXJX+X+X+X+X+X+XJXJXJXJXJXJXJXJXJXJXJXJXJXJXJXJXJXJXJXJXJXJXJXJXJXJXJXJXJXJXJX",
"JXJXJXJXJXJXJXJXJXJXOXOXOXOX+XOXOXJXJXJXJXJXJXJXJXJXJXJXJXJXJXJXJXJXJXJXJXJXJXJXJXJXJXJXJXJXJXJX",
"JXJXJXJXJXJXJXJXJXJXOXOX+X+X+X+XOXJXJXJXJXJXJXJXJXJXJXJXJXJXJXJXJXJXJXJXJXJXJXJXJXJXJXJXJXJXJXJX",
"JXJXJXJXJXJXJXJXJXJXOXOX+X+XOXOXXXJXJXJXJXJXJXJXJXJXJXJXJX0X>X>X*XoXJXJXJXJXJXJXJXJXJXJXJXJXJXJX",
"JXJXJXJXJXJXJXJXJXJXOXOX+XOXOX+X_.JXJXJXJXJXJXJXJXMXMXgXgXeX9X:X*X+X+X+X+XOXXX_.JXJXJXJXJXJXJXJX",
"JXJXJXJXJXJXJXJXJXJXOXOX+X+XOX`.9.JXJXJXJXJXJXJXJXMXnXgXeX>X>X%X+X+X+X+X+XOX+X+XJXJXJXJXJXJXJXJX",
"JXJXJXJXJXJXJXJXJXJXOXOXOXOX'.9.JXJXJXJXJXJXFXSXBXnXgXeX9X:X*X+X+X+X+X+X+XOXOXOX+XJXJXJXJXJXJXJX",
"JXJXJXJXJXJXJXJXJXJXOX+X+X_.JXJXJXJXJXNXHXGXSXMXnXgXuX9X*X*X+X+XOX+X+X+X+X+XOXOX+X+X+X`.JXJXJXJX",
"JXJXJXJXJXJXJXJXJXJXOX+XoX0.JXJXJXkXDXHXGXCXMXnXiX0X>X*X%X+X+X+X+X+X+X+XOX+XOXOX+X+X+X+X_.m.JXJX",
"JXJXJXJXJXJXJXJXJXJXOXXXC.JXJXJXJXDXHXGXCXMXnXpX0X>X*X%X+X+X+X+X+XOXOX+XOX+X+X+X+XOXOXOXOX`.JXJX",
"JXJXJXJXJXJXJXJXJXJXJXJXJXJXJXJXJXHXFXCXMXbXiXeX>X*X%XoX/.JXJXJXJXJXJX).XX+X+X+X+X+X+X+X+XOXD.JX",
"JXJXJXJXJXJXJXJXJXJXJXJXJXJXJXJXFXFXVXMXbXiX0X>X%X#X(.v.6.JXJXJXJXJXJX6.B.).OXOXOX+X+X+X+X+XoXJX",
"JXJXJXJXJXJXJXJXJXJXJXJXJXJXJXJXFXVXMXbXiX0X>X*X{.v.JXJXJXJXJXJXJXJXJXJXJXJXB.).OX+XOX+X+X+XOXJX",
"JXJXJXJXJXJXJXJXJXJXJXJXJXJXJXJXVXmXbXiX0X>X*X`.7.JXJXJXJXJXJXJXJXJXJXJXJXJXJXJX).OXOX+X+X+X+X+X",
"JXJXJXJXJXJXJXJXJXJXJXJXJXJXVXVXmXbXuX0X>X%X`.JXJXJXJXJXJXXXOXOXOXOXXXJXJXJXJXJXJXOXOXOX+X+X+X+X",
"JXJXJXJXJXJXJXJXJXJXJXJXJXJXmXmXgXuX9X>X%X%XB.JXJXJXJXJXOXOXOX+XOXOXOXOX_.B.JXJXJX_.OX+X+X+X+X+X",
"JXJXJXJXJXJXJXJXJXJXJXJXJXJXmXpXiX9X>X%X%X).JXJXJXJXJXJXOXOX+XOX+XOX+XOXOX).JXJXJXB.OXOX+X+X+X+X",
"JXJXJXJXJXJXJXJXJXJXJXJXJXJXgXeX9X>X%X%XOX(.JXJXJXJXJXJX+X+XOXOX+X+X+X+X+XOXJXJXJXJXJXOX+X+X+X+X",
"JXJXJXJXJXJXJXJXJXJXJXJXJXiXuX>X>X*X+X+X).B.JXJXJXJXJXJXOXOXOXOXOX+X+X+X+X+X).3.JXJXJX+X+X+XOX+X",
"JXJXJXJXJXJXJXJXJXJXJXJXJX0X9X:X*X+X+XOXXXc.JXJXJXJXJXJXZ./.XXOXOX+XOXOX+XOXXXz.JXJXJXOX+X+X+X+X",
"JXJXJXJXJXJXJXJXJXJXJXJXJX>X*X*X+X+X+XOXXXB.JXJXJXJXJXJXJXJXJXJXZ.).OXOX+X+X).6.JXJXJX+XOX+X+X+X",
"JXJXJXJXJXJXJXJXJXJXJXJXJX:X*X+XOXOXOXOXXXB.JXJXJXJXJXJXJXJXJXJXJXJXXXOX+XOXJXJXJXJXJXOX+X+X+X+X"
};
