/* XPM */
static char * torcs_xpm[] = {
"32 32 295 2",
"  	c None",
". 	c #FC3940",
"+ 	c #FB494F",
"@ 	c #F53A41",
"# 	c #F13239",
"$ 	c #F9494F",
"% 	c #FD686D",
"& 	c #FD6166",
"* 	c #FC5156",
"= 	c #FA3F45",
"- 	c #F7353C",
"; 	c #F82F36",
"> 	c #F21E25",
", 	c #F84349",
"' 	c #FE5D62",
") 	c #FF585D",
"! 	c #FF4D52",
"~ 	c #FF4248",
"{ 	c #FE373E",
"] 	c #FE2C33",
"^ 	c #FD2027",
"/ 	c #FB131B",
"( 	c #FB0A13",
"_ 	c #F7020A",
": 	c #F3060E",
"< 	c #F1161E",
"[ 	c #F8393F",
"} 	c #FE5157",
"| 	c #FF4C51",
"1 	c #FF4147",
"2 	c #FF363C",
"3 	c #FF2C32",
"4 	c #FF2128",
"5 	c #FF161E",
"6 	c #FF0C13",
"7 	c #FE030B",
"8 	c #FE0008",
"9 	c #FD0008",
"0 	c #FC0008",
"a 	c #FB010A",
"b 	c #F8050D",
"c 	c #F4060E",
"d 	c #F20B13",
"e 	c #F0050E",
"f 	c #F8252C",
"g 	c #FE464C",
"h 	c #FF4046",
"i 	c #FF353B",
"j 	c #FF2A31",
"k 	c #FF2027",
"l 	c #FF151D",
"m 	c #FF0A12",
"n 	c #FF020B",
"o 	c #FF0009",
"p 	c #FB0008",
"q 	c #F90008",
"r 	c #F6030B",
"s 	c #F30E16",
"t 	c #F4111A",
"u 	c #F82B32",
"v 	c #FE3A40",
"w 	c #FF333A",
"x 	c #FF292F",
"y 	c #FF1E25",
"z 	c #FF131B",
"A 	c #FF0911",
"B 	c #FF020A",
"C 	c #FB0109",
"D 	c #F70008",
"E 	c #F50109",
"F 	c #F30C15",
"G 	c #F82D34",
"H 	c #FD2F36",
"I 	c #FF272E",
"J 	c #FF1C24",
"K 	c #FF1219",
"L 	c #FF0810",
"M 	c #FF010A",
"N 	c #F9020B",
"O 	c #F30810",
"P 	c #F6262D",
"Q 	c #FB2128",
"R 	c #FD1A21",
"S 	c #FE1017",
"T 	c #FE060E",
"U 	c #FF0109",
"V 	c #E50109",
"W 	c #5E0C0F",
"X 	c #D51C23",
"Y 	c #C9141A",
"Z 	c #DE050D",
"` 	c #F00109",
" .	c #F40109",
"..	c #FA0008",
"+.	c #FE0009",
"@.	c #A70A10",
"#.	c #0F0203",
"$.	c #500206",
"%.	c #710D11",
"&.	c #660F12",
"*.	c #AC0208",
"=.	c #F20108",
"-.	c #E2040C",
";.	c #E0060E",
">.	c #E0060D",
",.	c #E0030B",
"'.	c #E00008",
").	c #E0030A",
"!.	c #E0040B",
"~.	c #E0050D",
"{.	c #D60007",
"].	c #5D060A",
"^.	c #030001",
"/.	c #761014",
"(.	c #E8070F",
"_.	c #E0070F",
":.	c #7C0D11",
"<.	c #3A090B",
"[.	c #390B0D",
"}.	c #3C0B0D",
"|.	c #3C0608",
"1.	c #3C0002",
"2.	c #3C080A",
"3.	c #3C0A0C",
"4.	c #3C0709",
"5.	c #370002",
"6.	c #130001",
"7.	c #F30A12",
"8.	c #941216",
"9.	c #0C0404",
"0.	c #FC050D",
"a.	c #F10209",
"b.	c #580C0F",
"c.	c #020000",
"d.	c #FD0109",
"e.	c #DB060D",
"f.	c #2A0A0B",
"g.	c #FB1018",
"h.	c #C9030A",
"i.	c #1F0103",
"j.	c #FC0C14",
"k.	c #940A0F",
"l.	c #080101",
"m.	c #FC010A",
"n.	c #EF020A",
"o.	c #60090C",
"p.	c #FD0009",
"q.	c #EB040C",
"r.	c #480E11",
"s.	c #FC252D",
"t.	c #FB272F",
"u.	c #FB2027",
"v.	c #FB2028",
"w.	c #FA141C",
"x.	c #F7050E",
"y.	c #F30008",
"z.	c #F10008",
"A.	c #FB171F",
"B.	c #DB030B",
"C.	c #410205",
"D.	c #FD383F",
"E.	c #FD4950",
"F.	c #FD4E53",
"G.	c #FE4349",
"H.	c #FE3238",
"I.	c #FE2128",
"J.	c #FE1018",
"K.	c #F60008",
"L.	c #EE040C",
"M.	c #FB0C14",
"N.	c #DA0A11",
"O.	c #651417",
"P.	c #D22B31",
"Q.	c #FC585D",
"R.	c #FF6267",
"S.	c #FE545A",
"T.	c #FF444A",
"U.	c #FF2229",
"V.	c #FF1119",
"W.	c #FF040C",
"X.	c #F1070F",
"Y.	c #DE171E",
"Z.	c #FC0A13",
"`.	c #E00810",
" +	c #61181B",
".+	c #56171A",
"++	c #D73E43",
"@+	c #FB6B6F",
"#+	c #FF666A",
"$+	c #FF565B",
"%+	c #D8161C",
"&+	c #F80810",
"*+	c #F0030B",
"=+	c #7E171B",
"-+	c #451718",
";+	c #D83F45",
">+	c #FD6E72",
",+	c #FE666B",
"'+	c #FF555A",
")+	c #FF3339",
"!+	c #F60009",
"~+	c #D10F16",
"{+	c #EC0F17",
"]+	c #FA0009",
"^+	c #B41117",
"/+	c #3A1718",
"(+	c #BA3D41",
"_+	c #FB6B70",
":+	c #FF666B",
"<+	c #FD030B",
"[+	c #F80008",
"}+	c #F2030A",
"|+	c #AF151A",
"1+	c #EA050E",
"2+	c #E4060E",
"3+	c #521113",
"4+	c #7D1B1F",
"5+	c #F65B60",
"6+	c #FE666A",
"7+	c #FF555B",
"8+	c #FD1018",
"9+	c #F2030B",
"0+	c #CF0007",
"a+	c #9C0005",
"b+	c #840005",
"c+	c #880006",
"d+	c #870005",
"e+	c #B10006",
"f+	c #E50008",
"g+	c #E2050C",
"h+	c #A5171C",
"i+	c #3D0C0E",
"j+	c #D5353C",
"k+	c #FE6267",
"l+	c #FF2129",
"m+	c #E4030B",
"n+	c #800005",
"o+	c #350002",
"p+	c #510003",
"q+	c #7B0005",
"r+	c #A30006",
"s+	c #750004",
"t+	c #560004",
"u+	c #740005",
"v+	c #B80006",
"w+	c #F50008",
"x+	c #972428",
"y+	c #F84E54",
"z+	c #E6030B",
"A+	c #6C0004",
"B+	c #450003",
"C+	c #B20006",
"D+	c #EE0008",
"E+	c #E80008",
"F+	c #C70007",
"G+	c #CA0007",
"H+	c #EF2830",
"I+	c #FE4F55",
"J+	c #FF1018",
"K+	c #F8030B",
"L+	c #970005",
"M+	c #3B0002",
"N+	c #C80007",
"O+	c #C90007",
"P+	c #E30008",
"Q+	c #FB2931",
"R+	c #FE030C",
"S+	c #E60008",
"T+	c #4D0003",
"U+	c #D30007",
"V+	c #FC2C34",
"W+	c #FF3239",
"X+	c #C30007",
"Y+	c #340002",
"Z+	c #D10007",
"`+	c #A60006",
" @	c #B30007",
".@	c #FB232B",
"+@	c #BD0007",
"@@	c #210001",
"#@	c #B60007",
"$@	c #BC0007",
"%@	c #D50007",
"&@	c #EF0008",
"*@	c #AF0007",
"=@	c #5B0004",
"-@	c #F00008",
";@	c #FA151D",
">@	c #FE1119",
",@	c #290002",
"'@	c #500003",
")@	c #730004",
"!@	c #9F0006",
"~@	c #E50007",
"{@	c #940005",
"                                                                ",
". + @ #                                                         ",
"$ % & * = - ; >                                                 ",
", ' ) ! ~ { ] ^ / ( _ : <                                       ",
"[ } | 1 2 3 4 5 6 7 8 9 0 a b c d e                             ",
"f g h i j k l m n o o o o o 8 8 9 p q r s t                     ",
"u v w x y z A B o o o o o o o o o o o 8 9 9 C D E F             ",
"G H I J K L M o o o o o o o o o o o o o o o o 8 8 9 C N O       ",
"P Q R S T U o o o o o o o o o o o o o o o o o o o o o 9 V W     ",
"  X Y Z `  ...8 o o o o o o o o o o o o o o o o o o +...@.#.    ",
"      $.%.&.*.D 8 o o o 8 9 =.-.;.>.,.'.).!.~.>.!.,.'.{.].^.    ",
"            /.(.8 o o o 8 _.:.<.[.}.|.1.|.2.3.}.2.4.1.5.6.      ",
"              7.8 o o o ..8.9.                                  ",
"              0.o o o +.a.b.c.                                  ",
"              d.o o o 8 e.f.                                    ",
"            g.+.o o o 9 h.i.                                    ",
"            j.+.o o o q k.l.                                    ",
"            m.o o o o n.o.                                      ",
"            p.o o o 8 q.r.        s.t.u.v.w.x.y.z.              ",
"          A.8 o o 8 0 B.C.    D.E.F.G.H.I.J.7 9 0 K.L.          ",
"          M.+.o 8 0 N.O.r.P.Q.R.S.T.w U.V.W.o o o 8 0 X.Y.      ",
"          Z.o o 9 `. +.+++@+#+$+T.w U.V.W.o o o o o o 8 _ %+    ",
"          &+8 8 *+=+-+;+>+,+'+T.)+U.V.W.o o o o o o o o 8 !+~+  ",
"          {+p ]+^+/+(+_+:+'+T.w 4 J.<+..[+[+[+0 8 o o o o 8 }+|+",
"            1+2+3+4+5+6+7+T.w U.8+9+0+a+b+c+d+e+f+..8 o o o 9 g+",
"              h+i+j+k+7+T.)+l+8+m+n+o+p+q+r+s+t+u+v+w+8 o o o q ",
"                x+y+'+T.w l+8+z+A+B+C+D+..0 [+E+F+  G+..8 o o 8 ",
"                H+I+T.w U.J+K+L+M+N+p +.o o 8 9 y.O+  P+9 o o o ",
"                Q+G.)+U.V.R+S+T+L+..o o o o o o 9 f+  U+p o o o ",
"                V+W+l+V.W.8 X+Y+Z+[+0 8 8 o o o o q `+ @D o o o ",
"                .@U.V.W.o 9 +@@@  #@$@%@&@q 9 8 o 0 *@=@-@o o o ",
"                ;@>@W.o o 8 X+,@      '@)@!@~@8 o ..{@u+K.o o o "};
